<?xml version="1.0" encoding="UTF-8" standalone="no"?><svg xmlns="http://www.w3.org/2000/svg" xmlns:xlink="http://www.w3.org/1999/xlink" contentStyleType="text/css" height="194px" preserveAspectRatio="none" style="width:995px;height:194px;background:#FFFFFF;" version="1.1" viewBox="0 0 995 194" width="995px" zoomAndPan="magnify"><defs/><g><rect height="26.2969" style="stroke:#00000000;stroke-width:1.0;fill:none;" width="162" x="409.75" y="5"/><text fill="#000000" font-family="sans-serif" font-size="14" font-weight="bold" lengthAdjust="spacing" textLength="152" x="414.75" y="22.9951">plantuml-encoding</text><g id="elem_setup"><ellipse cx="86.6638" cy="57.878" fill="#FFFECC" rx="40.6638" ry="14.5812" style="stroke:#333333;stroke-width:2.0;"/><text fill="#000000" font-family="sans-serif" font-size="14" lengthAdjust="spacing" textLength="41" x="63.5122" y="61.5401">setup</text></g><g id="elem_composer:install"><ellipse cx="86.6107" cy="168.819" fill="#FFFECC" rx="80.6107" ry="18.5221" style="stroke:#333333;stroke-width:2.0;"/><text fill="#000000" font-family="sans-serif" font-size="14" lengthAdjust="spacing" textLength="120" x="25.1726" y="172.1316">composer:install</text></g><g id="elem_qa"><ellipse cx="555.5061" cy="57.8205" fill="#FFFECC" rx="23.5061" ry="14.5236" style="stroke:#333333;stroke-width:2.0;"/><text fill="#000000" font-family="sans-serif" font-size="14" lengthAdjust="spacing" textLength="17" x="547.0061" y="60.6672">qa</text></g><g id="elem_composer:validate"><ellipse cx="288.5998" cy="169.0168" fill="#FFFECC" rx="86.5998" ry="19.72" style="stroke:#333333;stroke-width:2.0;"/><text fill="#000000" font-family="sans-serif" font-size="14" lengthAdjust="spacing" textLength="134" x="221.5998" y="171.8635">composer:validate</text></g><g id="elem_tests:run"><ellipse cx="468.5731" cy="168.5588" fill="#FFFECC" rx="58.5731" ry="14.7619" style="stroke:#333333;stroke-width:2.0;"/><text fill="#000000" font-family="sans-serif" font-size="14" lengthAdjust="spacing" textLength="65" x="433.0731" y="172.3064">tests:run</text></g><g id="elem_phpstan:analyse"><ellipse cx="642.2839" cy="168.6536" fill="#FFFECC" rx="79.7839" ry="18.3568" style="stroke:#333333;stroke-width:2.0;"/><text fill="#000000" font-family="sans-serif" font-size="14" lengthAdjust="spacing" textLength="118" x="581.5356" y="172.0582">phpstan:analyse</text></g><g id="elem_psalm:run"><ellipse cx="820.4096" cy="168.6788" fill="#FFFECC" rx="62.4096" ry="14.8819" style="stroke:#333333;stroke-width:2.0;"/><text fill="#000000" font-family="sans-serif" font-size="14" lengthAdjust="spacing" textLength="71" x="781.9096" y="172.4264">psalm:run</text></g><g id="elem_help"><ellipse cx="952.6191" cy="57.8229" fill="#FFFECC" rx="34.1191" ry="14.526" style="stroke:#333333;stroke-width:2.0;"/><text fill="#000000" font-family="sans-serif" font-size="14" lengthAdjust="spacing" textLength="32" x="936.1725" y="60.835">help</text></g><g id="elem_map"><ellipse cx="952.6191" cy="168.8229" fill="#FFFECC" rx="34.1191" ry="14.526" style="stroke:#333333;stroke-width:2.0;"/><text fill="#000000" font-family="sans-serif" font-size="14" lengthAdjust="spacing" textLength="32" x="936.1725" y="171.835">map</text></g><!--MD5=[c4e3d432c5d44af54c7eae14d718607a]
link setup to composer:install--><g id="link_setup_composer:install"><path d="M86.5,72.6019 C86.5,90.8456 86.5,123.2243 86.5,145.0954 " fill="none" id="setup-to-composer:install" style="stroke:#1A85FF;stroke-width:2.0;"/><polygon fill="#1A85FF" points="86.5,150.1403,90.5,141.1403,86.5,145.1403,82.5,141.1403,86.5,150.1403" style="stroke:#1A85FF;stroke-width:2.0;"/><text fill="#000000" font-family="sans-serif" font-size="13" lengthAdjust="spacing" textLength="61" x="87.5" y="115.3638">depend:1</text></g><!--MD5=[2b3f4df63b0ee79c9fb6dbf297809d2e]
link qa to composer:validate--><g id="link_qa_composer:validate"><path d="M535.496,65.8509 C512.096,74.1899 472.258,88.6632 438.5,102.2969 C401.484,117.2462 359.923,135.5131 329.952,148.9546 " fill="none" id="qa-to-composer:validate" style="stroke:#1A85FF;stroke-width:2.0;"/><polygon fill="#1A85FF" points="325.244,151.0692,335.0928,151.0307,329.8051,149.0206,331.8151,143.7329,325.244,151.0692" style="stroke:#1A85FF;stroke-width:2.0;"/><text fill="#000000" font-family="sans-serif" font-size="13" lengthAdjust="spacing" textLength="61" x="439.5" y="115.3638">depend:1</text></g><!--MD5=[e8c76a48a8938f84d7dc168f53123b8f]
link qa to tests:run--><g id="link_qa_tests:run"><path d="M545.52,71.3009 C530.141,90.5679 500.581,127.6036 482.891,149.7673 " fill="none" id="qa-to-tests:run" style="stroke:#1A85FF;stroke-width:2.0;"/><polygon fill="#1A85FF" points="479.732,153.725,488.4723,149.1854,482.8508,149.8169,482.2193,144.1954,479.732,153.725" style="stroke:#1A85FF;stroke-width:2.0;"/><text fill="#000000" font-family="sans-serif" font-size="13" lengthAdjust="spacing" textLength="61" x="521.5" y="115.3638">depend:2</text></g><!--MD5=[b262473b911c46ff8b5477d1d7192d1b]
link qa to phpstan:analyse--><g id="link_qa_phpstan:analyse"><path d="M565.684,70.9049 C572.947,79.5889 582.908,91.5949 591.5,102.2969 C603.173,116.8367 616.073,133.4092 625.978,146.2464 " fill="none" id="qa-to-phpstan:analyse" style="stroke:#1A85FF;stroke-width:2.0;"/><polygon fill="#1A85FF" points="629.217,150.4484,626.8927,140.8777,626.1654,146.4876,620.5555,145.7603,629.217,150.4484" style="stroke:#1A85FF;stroke-width:2.0;"/><text fill="#000000" font-family="sans-serif" font-size="13" lengthAdjust="spacing" textLength="61" x="605.5" y="115.3638">depend:3</text></g><!--MD5=[5d3e6fc319b2ee7a18ccbd3a812f0e8b]
link qa to psalm:run--><g id="link_qa_psalm:run"><path d="M575.637,65.5689 C599.622,73.7559 640.806,88.1969 675.5,102.2969 C715.337,118.4872 760.342,139.2075 789.5,152.9617 " fill="none" id="qa-to-psalm:run" style="stroke:#1A85FF;stroke-width:2.0;"/><polygon fill="#1A85FF" points="794.04,155.1076,787.6111,147.6464,789.5191,152.9717,784.1938,154.8797,794.04,155.1076" style="stroke:#1A85FF;stroke-width:2.0;"/><text fill="#000000" font-family="sans-serif" font-size="13" lengthAdjust="spacing" textLength="61" x="713.5" y="115.3638">depend:4</text></g><!--MD5=[14249115d5831a03908de0f88c57b1bf]
link help to map--><g id="link_help_map"><path d="M952.5,72.6019 C952.5,91.9304 952.5,127.1251 952.5,148.8804 " fill="none" id="help-to-map" style="stroke:#D41159;stroke-width:2.0;"/><polygon fill="#D41159" points="952.5,154.1041,956.5,145.1041,952.5,149.1041,948.5,145.1041,952.5,154.1041" style="stroke:#D41159;stroke-width:2.0;"/><text fill="#000000" font-family="sans-serif" font-size="13" lengthAdjust="spacing" textLength="34" x="953.5" y="115.3638">call:1</text></g><!--MD5=[dee43b02f6b5a4be0ddda1acc3752f6a]
@startuml
title
plantuml-encoding
end title

top to bottom direction

skinparam Shadowing false
skinparam ArrowFontColor Black
skinparam ArrowThickness 2
skinparam UseCaseBackgroundColor #FFFECC
skinparam UseCaseBorderColor #333333
skinparam UseCaseBorderThickness 2
skinparam UseCaseFontColor Black


(setup) -[#1A85FF]-> (composer:install) : depend:1
(qa) -[#1A85FF]-> (composer:validate) : depend:1
(qa) -[#1A85FF]-> (tests:run) : depend:2
(qa) -[#1A85FF]-> (phpstan:analyse) : depend:3
(qa) -[#1A85FF]-> (psalm:run) : depend:4
(help) -[#D41159]-> (map) : call:1
(setup)
(qa)
(composer:install)
(composer:validate)
(phpstan:analyse)
(psalm:run)
(tests:run)
(help)
(map)
@enduml

PlantUML version 1.2022.6beta5(Unknown compile time)
(GPL source distribution)
Java Runtime: Java(TM) SE Runtime Environment
JVM: Java HotSpot(TM) 64-Bit Server VM
Default Encoding: UTF-8
Language: en
Country: US
--></g></svg>