<?xml version="1.0" encoding="UTF-8" standalone="no"?><svg xmlns="http://www.w3.org/2000/svg" xmlns:xlink="http://www.w3.org/1999/xlink" contentStyleType="text/css" height="197px" preserveAspectRatio="none" style="width:1217px;height:197px;background:#FFFFFF;" version="1.1" viewBox="0 0 1217 197" width="1217px" zoomAndPan="magnify"><defs/><g><rect height="26.2969" style="stroke:#00000000;stroke-width:1.0;fill:none;" width="162" x="520.75" y="5"/><text fill="#000000" font-family="sans-serif" font-size="14" font-weight="bold" lengthAdjust="spacing" textLength="152" x="525.75" y="22.9951">plantuml-encoding</text><g id="elem_setup"><ellipse cx="86.6638" cy="57.878" fill="#FFFECC" rx="40.6638" ry="14.5812" style="stroke:#333333;stroke-width:2.0;"/><text fill="#000000" font-family="sans-serif" font-size="14" lengthAdjust="spacing" textLength="41" x="63.5122" y="61.5401">setup</text></g><g id="elem_composer:install"><ellipse cx="86.6107" cy="170.319" fill="#FFFECC" rx="80.6107" ry="18.5221" style="stroke:#333333;stroke-width:2.0;"/><text fill="#000000" font-family="sans-serif" font-size="14" lengthAdjust="spacing" textLength="120" x="25.1726" y="173.6316">composer:install</text></g><g id="elem_qa"><ellipse cx="690.5061" cy="57.8205" fill="#FFFECC" rx="23.5061" ry="14.5236" style="stroke:#333333;stroke-width:2.0;"/><text fill="#000000" font-family="sans-serif" font-size="14" lengthAdjust="spacing" textLength="17" x="682.0061" y="60.6672">qa</text></g><g id="elem_composer:normalize"><ellipse cx="295.2771" cy="170.2523" fill="#FFFECC" rx="92.7771" ry="20.9554" style="stroke:#333333;stroke-width:2.0;"/><text fill="#000000" font-family="sans-serif" font-size="14" lengthAdjust="spacing" textLength="148" x="221.2771" y="173.099">composer:normalize</text></g><g id="elem_composer:validate"><ellipse cx="510.5998" cy="170.5168" fill="#FFFECC" rx="86.5998" ry="19.72" style="stroke:#333333;stroke-width:2.0;"/><text fill="#000000" font-family="sans-serif" font-size="14" lengthAdjust="spacing" textLength="134" x="443.5998" y="173.3635">composer:validate</text></g><g id="elem_tests:run"><ellipse cx="690.5731" cy="170.0588" fill="#FFFECC" rx="58.5731" ry="14.7619" style="stroke:#333333;stroke-width:2.0;"/><text fill="#000000" font-family="sans-serif" font-size="14" lengthAdjust="spacing" textLength="65" x="655.0731" y="173.8064">tests:run</text></g><g id="elem_phpstan:analyse"><ellipse cx="864.2839" cy="170.1536" fill="#FFFECC" rx="79.7839" ry="18.3568" style="stroke:#333333;stroke-width:2.0;"/><text fill="#000000" font-family="sans-serif" font-size="14" lengthAdjust="spacing" textLength="118" x="803.5356" y="173.5582">phpstan:analyse</text></g><g id="elem_psalm:run"><ellipse cx="1042.4096" cy="170.1788" fill="#FFFECC" rx="62.4096" ry="14.8819" style="stroke:#333333;stroke-width:2.0;"/><text fill="#000000" font-family="sans-serif" font-size="14" lengthAdjust="spacing" textLength="71" x="1003.9096" y="173.9264">psalm:run</text></g><g id="elem_help"><ellipse cx="1174.6191" cy="57.8229" fill="#FFFECC" rx="34.1191" ry="14.526" style="stroke:#333333;stroke-width:2.0;"/><text fill="#000000" font-family="sans-serif" font-size="14" lengthAdjust="spacing" textLength="32" x="1158.1725" y="60.835">help</text></g><g id="elem_map"><ellipse cx="1174.6191" cy="170.3229" fill="#FFFECC" rx="34.1191" ry="14.526" style="stroke:#333333;stroke-width:2.0;"/><text fill="#000000" font-family="sans-serif" font-size="14" lengthAdjust="spacing" textLength="32" x="1158.1725" y="173.335">map</text></g><!--MD5=[c4e3d432c5d44af54c7eae14d718607a]
link setup to composer:install--><g id="link_setup_composer:install"><path d="M86.5,72.3459 C86.5,90.8069 86.5,124.1155 86.5,146.4683 " fill="none" id="setup-to-composer:install" style="stroke:#1A85FF;stroke-width:2.0;"/><polygon fill="#1A85FF" points="86.5,151.6198,90.5,142.6198,86.5,146.6198,82.5,142.6198,86.5,151.6198" style="stroke:#1A85FF;stroke-width:2.0;"/><text fill="#000000" font-family="sans-serif" font-size="13" lengthAdjust="spacing" textLength="61" x="87.5" y="115.3638">depend:1</text></g><!--MD5=[bd109b3677e86d799c713ba6a41cbebf]
link qa to composer:normalize--><g id="link_qa_composer:normalize"><path d="M669.223,64.0619 C637.276,72.0229 575.054,87.7419 522.5,102.2969 C464.998,118.2226 399.693,137.6382 353.939,151.4605 " fill="none" id="qa-to-composer:normalize" style="stroke:#1A85FF;stroke-width:2.0;"/><polygon fill="#1A85FF" points="349.016,152.9488,358.7885,154.1727,353.802,151.5016,356.4731,146.5151,349.016,152.9488" style="stroke:#1A85FF;stroke-width:2.0;"/><text fill="#000000" font-family="sans-serif" font-size="13" lengthAdjust="spacing" textLength="61" x="523.5" y="115.3638">depend:1</text></g><!--MD5=[2b3f4df63b0ee79c9fb6dbf297809d2e]
link qa to composer:validate--><g id="link_qa_composer:validate"><path d="M674.423,68.6379 C660.03,77.4499 638.351,90.7289 619.5,102.2969 C594.048,117.9161 565.268,135.6077 543.675,148.8877 " fill="none" id="qa-to-composer:validate" style="stroke:#1A85FF;stroke-width:2.0;"/><polygon fill="#1A85FF" points="539.18,151.6522,548.9415,150.3435,543.4387,149.0324,544.7498,143.5295,539.18,151.6522" style="stroke:#1A85FF;stroke-width:2.0;"/><text fill="#000000" font-family="sans-serif" font-size="13" lengthAdjust="spacing" textLength="61" x="620.5" y="115.3638">depend:2</text></g><!--MD5=[e8c76a48a8938f84d7dc168f53123b8f]
link qa to tests:run--><g id="link_qa_tests:run"><path d="M690.5,72.3459 C690.5,91.8736 690.5,128.0159 690.5,150.2297 " fill="none" id="qa-to-tests:run" style="stroke:#1A85FF;stroke-width:2.0;"/><polygon fill="#1A85FF" points="690.5,155.288,694.5,146.288,690.5,150.288,686.5,146.288,690.5,155.288" style="stroke:#1A85FF;stroke-width:2.0;"/><text fill="#000000" font-family="sans-serif" font-size="13" lengthAdjust="spacing" textLength="61" x="691.5" y="115.3638">depend:3</text></g><!--MD5=[b262473b911c46ff8b5477d1d7192d1b]
link qa to phpstan:analyse--><g id="link_qa_phpstan:analyse"><path d="M706.65,68.5209 C721.09,77.2569 742.798,90.4889 761.5,102.2969 C786.423,118.0336 814.447,136.301 834.965,149.783 " fill="none" id="qa-to-phpstan:analyse" style="stroke:#1A85FF;stroke-width:2.0;"/><polygon fill="#1A85FF" points="839.226,152.5846,833.9038,144.2976,835.0483,149.8374,829.5084,150.9819,839.226,152.5846" style="stroke:#1A85FF;stroke-width:2.0;"/><text fill="#000000" font-family="sans-serif" font-size="13" lengthAdjust="spacing" textLength="61" x="788.5" y="115.3638">depend:4</text></g><!--MD5=[5d3e6fc319b2ee7a18ccbd3a812f0e8b]
link qa to psalm:run--><g id="link_qa_psalm:run"><path d="M712.167,63.7049 C744.349,71.1529 806.568,86.1589 858.5,102.2969 C910.853,118.5653 970.261,140.9238 1007.06,155.2444 " fill="none" id="qa-to-psalm:run" style="stroke:#1A85FF;stroke-width:2.0;"/><polygon fill="#1A85FF" points="1011.88,157.1234,1004.9454,150.1297,1007.2209,155.3087,1002.0419,157.5843,1011.88,157.1234" style="stroke:#1A85FF;stroke-width:2.0;"/><text fill="#000000" font-family="sans-serif" font-size="13" lengthAdjust="spacing" textLength="61" x="911.5" y="115.3638">depend:5</text></g><!--MD5=[14249115d5831a03908de0f88c57b1bf]
link help to map--><g id="link_help_map"><path d="M1174.5,72.3459 C1174.5,91.9803 1174.5,128.4114 1174.5,150.5926 " fill="none" id="help-to-map" style="stroke:#D41159;stroke-width:2.0;"/><polygon fill="#D41159" points="1174.5,155.6366,1178.5,146.6366,1174.5,150.6366,1170.5,146.6366,1174.5,155.6366" style="stroke:#D41159;stroke-width:2.0;"/><text fill="#000000" font-family="sans-serif" font-size="13" lengthAdjust="spacing" textLength="34" x="1175.5" y="115.3638">call:1</text></g><!--MD5=[54fa6202190b34880391e83cfe23a050]
@startuml
title
plantuml-encoding
end title

top to bottom direction

skinparam Shadowing false
skinparam ArrowFontColor Black
skinparam ArrowThickness 2
skinparam UseCaseBackgroundColor #FFFECC
skinparam UseCaseBorderColor #333333
skinparam UseCaseBorderThickness 2
skinparam UseCaseFontColor Black


(setup) -[#1A85FF]-> (composer:install) : depend:1
(qa) -[#1A85FF]-> (composer:normalize) : depend:1
(qa) -[#1A85FF]-> (composer:validate) : depend:2
(qa) -[#1A85FF]-> (tests:run) : depend:3
(qa) -[#1A85FF]-> (phpstan:analyse) : depend:4
(qa) -[#1A85FF]-> (psalm:run) : depend:5
(help) -[#D41159]-> (map) : call:1
(setup)
(qa)
(composer:install)
(composer:validate)
(composer:normalize)
(phpstan:analyse)
(psalm:run)
(tests:run)
(help)
(map)
@enduml

PlantUML version 1.2022.6beta5(Unknown compile time)
(GPL source distribution)
Java Runtime: Java(TM) SE Runtime Environment
JVM: Java HotSpot(TM) 64-Bit Server VM
Default Encoding: UTF-8
Language: en
Country: US
--></g></svg>