<svg xmlns="http://www.w3.org/2000/svg" xmlns:xlink="http://www.w3.org/1999/xlink" contentStyleType="text/css" data-diagram-type="DESCRIPTION" height="194px" preserveAspectRatio="none" style="width:980px;height:194px;background:#FFFFFF;" version="1.1" viewBox="0 0 980 194" width="980px" zoomAndPan="magnify"><title>plantuml-encoding</title><defs/><g><text fill="#000000" font-family="sans-serif" font-size="14" font-weight="bold" lengthAdjust="spacing" textLength="148.2783" x="409.265" y="22.9951">plantuml-encoding</text><g id="elem_setup"><ellipse cx="84.8218" cy="57.8616" fill="#FFFECC" rx="39.3018" ry="14.5647" style="stroke:#333333;stroke-width:2;"/><text fill="#000000" font-family="sans-serif" font-size="14" lengthAdjust="spacing" textLength="39.1563" x="63.0826" y="61.3967">setup</text></g><g id="elem_composer:install"><ellipse cx="84.8174" cy="168.7904" fill="#FFFECC" rx="78.8174" ry="18.1635" style="stroke:#333333;stroke-width:2;"/><text fill="#000000" font-family="sans-serif" font-size="14" lengthAdjust="spacing" textLength="115.6367" x="24.8755" y="172.3023">composer:install</text></g><g id="elem_qa"><ellipse cx="544.8155" cy="57.8605" fill="#FFFECC" rx="23.8355" ry="14.5236" style="stroke:#333333;stroke-width:2;"/><text fill="#000000" font-family="sans-serif" font-size="14" lengthAdjust="spacing" textLength="17.4658" x="536.0826" y="60.7072">qa</text></g><g id="elem_composer:validate"><ellipse cx="283.815" cy="168.7839" fill="#FFFECC" rx="84.835" ry="19.367" style="stroke:#333333;stroke-width:2;"/><text fill="#000000" font-family="sans-serif" font-size="14" lengthAdjust="spacing" textLength="129.9443" x="218.8429" y="171.6306">composer:validate</text></g><g id="elem_tests:run"><ellipse cx="459.8208" cy="168.7846" fill="#FFFECC" rx="56.6308" ry="14.7477" style="stroke:#333333;stroke-width:2;"/><text fill="#000000" font-family="sans-serif" font-size="14" lengthAdjust="spacing" textLength="62.3984" x="425.6216" y="172.5322">tests:run</text></g><g id="elem_phpstan:analyse"><ellipse cx="629.818" cy="168.7865" fill="#FFFECC" rx="78.848" ry="18.1696" style="stroke:#333333;stroke-width:2;"/><text fill="#000000" font-family="sans-serif" font-size="14" lengthAdjust="spacing" textLength="115.7119" x="569.8506" y="172.295">phpstan:analyse</text></g><g id="elem_psalm:run"><ellipse cx="805.8198" cy="168.7868" fill="#FFFECC" rx="62.2498" ry="14.85" style="stroke:#333333;stroke-width:2;"/><text fill="#000000" font-family="sans-serif" font-size="14" lengthAdjust="spacing" textLength="70.5059" x="767.5669" y="172.5344">psalm:run</text></g><g id="elem_help"><ellipse cx="936.8245" cy="57.8606" fill="#FFFECC" rx="32.8845" ry="14.5237" style="stroke:#333333;stroke-width:2;"/><text fill="#000000" font-family="sans-serif" font-size="14" lengthAdjust="spacing" textLength="30.2627" x="921.6121" y="60.7385">help</text></g><g id="elem_map"><ellipse cx="936.8209" cy="168.7913" fill="#FFFECC" rx="33.4809" ry="14.5244" style="stroke:#333333;stroke-width:2;"/><text fill="#000000" font-family="sans-serif" font-size="14" lengthAdjust="spacing" textLength="31.1035" x="921.0139" y="171.7345">map</text></g><!--link setup to composer:install--><g id="link_setup_composer:install"><path d="M84.82,72.6569 C84.82,92.3469 84.82,122.5269 84.82,144.1469 " fill="none" id="setup-to-composer:install" style="stroke:#1A85FF;stroke-width:2;"/><polygon fill="#1A85FF" points="84.82,150.1469,88.82,141.1469,84.82,145.1469,80.82,141.1469,84.82,150.1469" style="stroke:#1A85FF;stroke-width:2;"/><text fill="#000000" font-family="sans-serif" font-size="13" lengthAdjust="spacing" textLength="61.6421" x="85.82" y="115.4938">depend:1</text></g><!--link qa to composer:validate--><g id="link_qa_composer:validate"><path d="M524.55,66.0269 C501.27,74.3569 462.03,88.7169 428.82,102.4269 C391.17,117.9569 354.209,134.7637 325.029,148.3537 " fill="none" id="qa-to-composer:validate" style="stroke:#1A85FF;stroke-width:2;"/><polygon fill="#1A85FF" points="319.59,150.8869,329.4373,150.7132,324.1225,148.7759,326.0598,143.4611,319.59,150.8869" style="stroke:#1A85FF;stroke-width:2;"/><text fill="#000000" font-family="sans-serif" font-size="13" lengthAdjust="spacing" textLength="61.6421" x="429.82" y="115.4938">depend:1</text></g><!--link qa to tests:run--><g id="link_qa_tests:run"><path d="M535.07,71.3569 C519.02,91.9169 490.8609,128.0064 474.2109,149.3464 " fill="none" id="qa-to-tests:run" style="stroke:#1A85FF;stroke-width:2;"/><polygon fill="#1A85FF" points="470.52,154.0769,479.2099,149.4417,473.5957,150.1348,472.9026,144.5206,470.52,154.0769" style="stroke:#1A85FF;stroke-width:2;"/><text fill="#000000" font-family="sans-serif" font-size="13" lengthAdjust="spacing" textLength="61.6421" x="511.82" y="115.4938">depend:2</text></g><!--link qa to phpstan:analyse--><g id="link_qa_phpstan:analyse"><path d="M555.74,71.2469 C563.24,79.8569 573.33,91.6769 581.82,102.4269 C594.47,118.4369 604.7029,132.4042 614.2229,145.7342 " fill="none" id="qa-to-phpstan:analyse" style="stroke:#1A85FF;stroke-width:2;"/><polygon fill="#1A85FF" points="617.71,150.6169,615.7345,140.9682,614.8041,146.548,609.2243,145.6176,617.71,150.6169" style="stroke:#1A85FF;stroke-width:2;"/><text fill="#000000" font-family="sans-serif" font-size="13" lengthAdjust="spacing" textLength="61.6421" x="595.82" y="115.4938">depend:3</text></g><!--link qa to psalm:run--><g id="link_qa_psalm:run"><path d="M565.16,65.5469 C589.38,73.6569 630.94,88.0369 665.82,102.4269 C706.36,119.1469 746.8392,138.5122 774.6892,152.2522 " fill="none" id="qa-to-psalm:run" style="stroke:#1A85FF;stroke-width:2;"/><polygon fill="#1A85FF" points="780.07,154.9069,773.7686,147.3377,775.586,152.6947,770.2291,154.5121,780.07,154.9069" style="stroke:#1A85FF;stroke-width:2;"/><text fill="#000000" font-family="sans-serif" font-size="13" lengthAdjust="spacing" textLength="61.6421" x="704.82" y="115.4938">depend:4</text></g><!--link help to map--><g id="link_help_map"><path d="M936.82,72.6569 C936.82,93.6069 936.82,127.2169 936.82,148.1069 " fill="none" id="help-to-map" style="stroke:#D41159;stroke-width:2;"/><polygon fill="#D41159" points="936.82,154.1069,940.82,145.1069,936.82,149.1069,932.82,145.1069,936.82,154.1069" style="stroke:#D41159;stroke-width:2;"/><text fill="#000000" font-family="sans-serif" font-size="13" lengthAdjust="spacing" textLength="34.9883" x="937.82" y="115.4938">call:1</text></g><!--SRC=[XP3DJiD038JlVegLUaaFEQG_4kI0r0Ro0i09SJ1PqwooMI-x3XLlJvhq4BKf-3gVnpCM8vR0MtJIjJObLx4sxW3aj9910s6lXDK7Yt2hj0bKYM4741lZF0PirNEDce_zdlf46scYx4BWOybE2hOSrDvYrLpABxMf6aSngjL4UerKOAHzlt08t3azEYpAidmgYXcGWwPmXjR3t8B-F7WP5Y2999rVglHjaUtkjcNvdZwefEBMSwIG6nS5hLsgN6do_UFo398llCb_epKQXVvR48eIyz2v2RYQ0ttj-mGkHuVs9qvzrxDuHDjU-6uWgScE7HytMRQz7z0M_Gcg-dgdZECV1a-uxWyp5U4g74pkmwJZEG0CDty1]--></g></svg>